<svg width="19" height="31" viewBox="0 0 19 31" fill="none" xmlns="http://www.w3.org/2000/svg">
<g clip-path="url(#clip0_1_456)">
<path fill-rule="evenodd" clip-rule="evenodd" d="M6.00358 15.0054C6.00358 13.3437 7.34366 12.0036 9.00537 12.0036C10.6671 12.0036 12.0072 13.3437 12.0072 15.0054C12.0072 16.6671 10.6671 18.0072 9.00537 18.0072C7.34366 18.0072 6.00358 16.6564 6.00358 15.0054ZM4.37404 15.0054C4.37404 17.5569 6.44313 19.626 8.99465 19.626C11.5462 19.626 13.6153 17.5569 13.6153 15.0054C13.6153 12.4538 11.5462 10.3848 8.99465 10.3848C6.44313 10.3848 4.37404 12.4538 4.37404 15.0054ZM12.7254 10.1918C12.7254 9.59143 13.2079 9.109 13.8082 9.109C14.4086 9.109 14.891 9.59143 14.891 10.1918C14.891 10.7921 14.4086 11.2746 13.8082 11.2746C13.2079 11.2746 12.7254 10.7921 12.7254 10.1918ZM5.36034 22.3276C6.30376 22.3705 6.59322 22.3812 8.99465 22.3812C11.3961 22.3812 11.6855 22.3705 12.629 22.3276C13.5081 22.2847 13.9798 22.1453 14.3014 22.0167C14.7195 21.8559 15.0197 21.6629 15.3413 21.3413C15.6522 21.0304 15.8559 20.7302 16.0167 20.3014C16.1346 19.9798 16.2847 19.5081 16.3276 18.629C16.3705 17.6748 16.3812 17.3961 16.3812 14.9946C16.3812 12.5932 16.3705 12.3038 16.3276 11.3603C16.2847 10.4812 16.1453 10.0095 16.0167 9.68791C15.8559 9.26981 15.6629 8.96963 15.3413 8.64801C15.0304 8.33711 14.7302 8.13341 14.3014 7.9726C13.9798 7.85468 13.5081 7.70459 12.629 7.6617C11.6748 7.61882 11.3961 7.6081 8.99465 7.6081C6.59322 7.6081 6.30376 7.61882 5.36034 7.6617C4.48124 7.70459 4.00953 7.84396 3.68791 7.9726C3.26981 8.13341 2.96963 8.32639 2.64801 8.64801C2.33711 8.95891 2.13341 9.25909 1.9726 9.68791C1.85468 10.0095 1.70459 10.4812 1.6617 11.3603C1.61882 12.3145 1.6081 12.5932 1.6081 14.9946C1.6081 17.3961 1.61882 17.6855 1.6617 18.629C1.70459 19.5081 1.84396 19.9798 1.9726 20.3014C2.13341 20.7195 2.32639 21.0197 2.64801 21.3413C2.95891 21.6522 3.25909 21.8559 3.68791 22.0167C4.00953 22.1453 4.49196 22.2847 5.36034 22.3276ZM5.28529 6.0536C4.33115 6.09649 3.67719 6.24658 3.09828 6.47171C2.50864 6.69684 2.00477 7.00774 1.50089 7.51162C1.00774 8.01549 0.707565 8.50864 0.47171 9.109C0.246576 9.67719 0.0964861 10.3312 0.0536034 11.296C0.0107207 12.2502 0 12.5611 0 15.0054C0 17.4497 0.0107207 17.7606 0.0536034 18.7147C0.0964861 19.6689 0.246576 20.3228 0.47171 20.9017C0.696844 21.4914 1.00774 21.9952 1.51162 22.4991C2.01549 23.003 2.50864 23.3032 3.109 23.539C3.67719 23.7642 4.33115 23.9142 5.29601 23.9571C6.26087 24 6.56105 24.0107 9.00537 24.0107C11.4497 24.0107 11.7606 24 12.7147 23.9571C13.6689 23.9142 14.3228 23.7642 14.9017 23.539C15.4914 23.3139 15.9952 23.003 16.4991 22.4991C17.003 21.9952 17.3032 21.4914 17.539 20.9017C17.7642 20.3335 17.9142 19.6796 17.9571 18.7147C18 17.7499 18.0107 17.4497 18.0107 15.0054C18.0107 12.5611 18 12.2502 17.9571 11.296C17.9142 10.3419 17.7642 9.68791 17.539 9.109C17.3139 8.51936 17.003 8.01549 16.4991 7.51162C15.9952 7.00774 15.4914 6.70756 14.9017 6.47171C14.3335 6.24658 13.6796 6.09649 12.7147 6.0536C11.7499 6.01072 11.4497 6 9.00537 6C6.56105 6 6.25015 6.01072 5.28529 6.0536Z" fill="black"/>
</g>
<defs>
<clipPath id="clip0_1_456">
<rect width="18" height="18" fill="white" transform="translate(0 6)"/>
</clipPath>
</defs>
</svg>
