<svg width="19" height="31" viewBox="0 0 19 31" fill="none" xmlns="http://www.w3.org/2000/svg">
<g clip-path="url(#clip0_1_448)">
<path d="M2.6884 12.7589H5.34013V21.3304H2.6884V12.7589ZM9.65378 17.3018V21.3304H7.02648V12.7589H9.55602V13.9467C9.67822 13.9467 9.61712 13.91 9.7882 13.6773C9.82486 13.6283 9.86152 13.5794 9.89818 13.5426C9.94706 13.4936 9.95928 13.4569 10.0082 13.4079C10.5703 12.8447 11.3401 12.5385 12.1344 12.5508C12.9898 12.5508 13.7963 12.7345 14.3707 13.2855L14.4929 13.4079C14.5295 13.4447 14.5784 13.4936 14.6029 13.5426C15.0061 14.0814 15.1528 14.5957 15.2627 15.3671C15.3238 16.0038 15.3483 16.6406 15.3483 17.2896V21.3549H12.6843V16.8365C12.6843 16.212 12.611 15.4161 12.0611 15.061C11.7434 14.8528 11.4746 14.8773 11.1202 14.8773C10.8025 14.8773 10.497 14.9875 10.2526 15.1957C10.2037 15.2324 10.167 15.2692 10.1304 15.3181C10.057 15.4038 9.98372 15.5141 9.93484 15.612C9.70266 16.0528 9.65378 16.6406 9.65378 17.3018ZM5.56009 10.0283C5.56009 10.4324 5.38901 10.8243 5.10795 11.1059C4.52139 11.7181 3.54379 11.7426 2.9328 11.1549C2.3218 10.5671 2.30958 9.58752 2.89614 8.97527L2.9328 8.93854C3.03055 8.84058 3.12831 8.75486 3.25051 8.69364C3.99593 8.26507 4.93687 8.52221 5.35235 9.26915C5.48677 9.5018 5.56009 9.77119 5.56009 10.0283ZM3.23355e-06 7.50588V22.4814C3.23355e-06 22.9467 0.0488831 23.1916 0.305502 23.5345C0.537682 23.8039 0.855401 23.9753 1.20978 23.9998H16.7414C16.9369 23.9998 17.1202 23.9508 17.279 23.8528C17.8289 23.5712 17.9878 23.0814 17.9878 22.4814V7.50588C18 7.29772 17.9756 7.1018 17.9145 6.90588C17.7556 6.40384 17.2913 6.04874 16.7658 6.01201H1.222C0.733201 5.99976 0.244403 6.37935 0.073323 6.88139C0.0122232 7.08956 -0.0122167 7.29772 3.23355e-06 7.50588Z" fill="black"/>
</g>
<defs>
<clipPath id="clip0_1_448">
<rect width="18" height="18" fill="white" transform="translate(0 6)"/>
</clipPath>
</defs>
</svg>
