<svg width="170" height="43" viewBox="0 0 170 43" fill="none" xmlns="http://www.w3.org/2000/svg">
<g clip-path="url(#clip0_1_15)">
<path d="M0.0115933 26.1111L1.90828e-06 26.614C1.90828e-06 28.6608 -0.0115895 30.7076 1.90828e-06 32.7544C1.90828e-06 33.7719 0.718671 34.6374 1.72713 34.6725C3.1181 34.731 4.50907 34.6959 5.91163 34.6959C6.92009 34.6959 7.81263 33.7719 7.77785 32.6023C7.74308 31.2924 7.80104 29.9824 7.81263 28.6725C7.82422 26.8947 7.8474 25.1053 7.859 23.3275C7.859 23 7.90536 22.9415 8.21833 22.8596C8.91382 22.6608 9.64408 22.6374 10.3627 22.7895C11.6726 23.0702 12.6231 24.0877 12.7622 25.421C12.8317 26.0877 12.8317 26.7661 12.8433 27.4327C12.8665 29.1871 12.8781 30.9532 12.9013 32.7076C12.9129 33.8772 13.7474 34.7193 14.9066 34.7193C16.1469 34.731 17.3987 34.731 18.639 34.731C19.8098 34.731 20.6559 33.9006 20.6559 32.7076C20.6675 29.0936 20.6675 25.4795 20.6675 21.8655V21.7017C20.6328 21.3275 20.4937 21 20.1575 20.8012C19.9257 20.6608 19.6823 20.5555 19.4157 20.4854C18.4072 20.2398 17.364 20.193 16.3439 20.3567C15.5557 20.4737 14.7791 20.6725 13.9909 20.8363C12.9708 21.0585 11.916 21.117 10.8728 21.0234C9.52816 20.883 8.35743 20.3099 7.25624 19.538C6.73463 19.1754 6.21301 18.8246 5.66821 18.4854C5.0075 18.076 4.27724 17.9474 3.51221 17.9006C2.70081 17.8538 1.87781 17.8304 1.07801 18.0175C0.440476 18.1696 0.115916 18.5439 0.0463677 19.1754C0.0347762 19.3158 0.0231848 19.4444 0.0231848 19.5848C0.0115933 21.7602 0.0115933 23.9357 0.0115933 26.1111ZM3.89472 16.883C6.05073 16.8947 7.80104 15.1286 7.81263 12.9532C7.82422 10.7778 6.07391 9.01169 3.91791 9C1.7619 8.9883 0.0115933 10.7544 1.90828e-06 12.9298V12.9415C1.90828e-06 15.1053 1.73872 16.8713 3.89472 16.883ZM20.5516 14.9649C20.5632 12.7895 18.8129 11.0234 16.6569 11.0117C14.5009 11 12.7506 12.7661 12.739 14.9415C12.7274 17.117 14.4777 18.883 16.6337 18.8947C18.8013 18.8947 20.54 17.1403 20.5516 14.9649ZM44.1634 34.6491H39.7007V26.8362H31.9228V34.6491H27.4717V15.5731H31.9344V22.8596H39.7123V15.5731H44.1634V34.6491ZM52.7294 22.9883C51.3501 22.9883 50.3764 23.7017 50.2257 25.0702H46.2035C46.3889 22.4152 48.939 20.0409 53.0888 20.0409C57.111 20.0409 59.4293 21.6784 59.3482 25.9941L59.3018 29.0702C59.2786 30.9181 59.3482 33.4444 59.6148 34.6491H55.3955L55.3375 32.9415C54.2943 34.4386 52.6251 34.9883 50.6198 34.9883C47.9538 34.9883 45.763 33.4093 45.763 30.8246C45.763 27.3509 49.6461 26.193 55.1057 25.7953V25.2573C55.0941 23.5965 54.2711 22.9883 52.7294 22.9883ZM52.1731 32.0526C53.8886 32.0526 55.1984 31.3158 55.1984 28.7076V28.3684C52.1962 28.6257 50.1909 29.0234 50.1909 30.5322C50.1909 31.4444 51.0603 32.0526 52.1731 32.0526ZM70.6034 20.1813C74.1968 20.1813 75.3212 22.3099 75.3212 26.1579V34.6608H71.0207V27.2339C71.0207 25.2105 70.9396 23.5497 68.8531 23.5497C67.0217 23.5497 66.2451 24.7895 66.2451 27.3977V34.6608H61.933V20.4971H66.2335V22.3684C66.871 21.3041 68.4127 20.1813 70.6034 20.1813ZM91.978 34.6491H87.6776V32.7544C86.7619 34.3099 84.9189 34.9883 83.3772 34.9883C79.7839 34.9883 77.199 32.2047 77.199 27.5614C77.199 22.9181 79.7839 20.1696 83.3772 20.1696C84.9189 20.1696 86.7735 20.8596 87.6776 22.4035V15.5731H91.978V34.6491ZM84.7798 31.6316C86.4721 31.6316 87.8863 30.4971 87.8863 27.5848C87.8863 24.6725 86.4721 23.5614 84.7798 23.5614C83.0642 23.5614 81.6501 24.9532 81.6501 27.5848C81.6501 30.2164 83.0526 31.6316 84.7798 31.6316ZM100.672 23.2807C99.2111 23.2807 98.4229 23.6784 98.4229 24.3333C98.4229 24.9883 98.9213 25.3626 100.15 25.5965L102.758 26.0643C106.154 26.6959 107.742 27.7017 107.742 30.193C107.742 33.3743 104.845 34.9883 100.961 34.9883C97.2522 34.9883 94.5745 33.3509 94.0761 30.0409H98.0635C98.4229 31.4093 99.5241 31.8304 101.008 31.8304C102.526 31.8304 103.616 31.4093 103.616 30.5672C103.616 29.9357 103.036 29.538 101.425 29.2573L98.9213 28.8362C96.2089 28.3918 94.3543 26.9883 94.3543 24.4971C94.3543 21.655 97.2985 20.1228 100.776 20.1228C103.987 20.1228 106.885 21.4327 107.429 24.6491H103.407C103.152 23.5965 102.028 23.2807 100.672 23.2807ZM123.171 26.1462V34.6491H118.87V27.2222C118.87 25.1988 118.824 23.538 116.726 23.538C114.894 23.538 114.095 24.7778 114.095 27.386V34.6491H109.794V15.5731H114.095V22.3684C114.72 21.3158 116.262 20.1813 118.453 20.1813C122.046 20.1813 123.171 22.3099 123.171 26.1462ZM132.026 22.9883C130.647 22.9883 129.685 23.7017 129.523 25.0702H125.5C125.686 22.4152 128.236 20.0409 132.386 20.0409C136.408 20.0409 138.726 21.6784 138.645 25.9941L138.599 29.0702C138.576 30.9181 138.645 33.4444 138.912 34.6491H134.692L134.646 32.9415C133.603 34.4386 131.934 34.9883 129.928 34.9883C127.262 34.9883 125.072 33.4093 125.072 30.8246C125.072 27.3509 128.955 26.193 134.414 25.7953V25.2573C134.403 23.5965 133.568 22.9883 132.026 22.9883ZM131.482 32.0526C133.209 32.0526 134.507 31.3158 134.507 28.7076V28.3684C131.505 28.6257 129.5 29.0234 129.5 30.5322C129.5 31.4444 130.357 32.0526 131.482 32.0526ZM145.565 25.8889L150.283 20.4971H155.372L150.364 25.924L155.789 34.6608H150.758L147.443 29.0819L145.565 31.1053V34.6608H141.265V15.5731H145.565V25.8889Z" fill="black"/>
<path d="M162.941 35C158.374 35 155.244 32.1813 155.244 27.5029C155.244 22.9766 158.664 20.076 162.755 20.076C167.404 20.076 170.267 23.655 169.977 28.6842H159.568C159.695 30.6842 161.237 31.6316 162.802 31.6316C164.425 31.6316 165.468 31.0468 165.955 30.2047H169.919C168.679 33.5497 165.758 35 162.941 35ZM165.7 26.0526C165.653 24.2865 164.367 23.3977 162.755 23.3977C161.248 23.3977 159.858 24.193 159.626 26.0526H165.7Z" fill="black"/>
</g>
<defs>
<clipPath id="clip0_1_15">
<rect width="170" height="26" fill="white" transform="translate(0 9)"/>
</clipPath>
</defs>
</svg>
