<svg width="19" height="31" viewBox="0 0 19 31" fill="none" xmlns="http://www.w3.org/2000/svg">
<g clip-path="url(#clip0_1_452)">
<path d="M18 8.12833C17.332 8.49171 16.6184 8.72963 15.873 8.84643C16.6395 8.28407 17.223 7.40159 17.4973 6.33742C16.7836 6.86085 15.9961 7.22855 15.1559 7.43619C14.4809 6.54939 13.5141 6 12.4629 6C10.4203 6 8.775 8.04182 8.775 10.5422C8.775 10.9012 8.79961 11.2473 8.85938 11.5761C5.79023 11.39 3.07617 9.58183 1.25156 6.82624C0.931641 7.50541 0.745313 8.28407 0.745313 9.12329C0.745313 10.6979 1.40273 12.0908 2.38359 12.8955C1.78945 12.8825 1.20938 12.6705 0.717187 12.3374V12.3893C0.717187 14.5955 1.99687 16.4297 3.67383 16.8493C3.375 16.9488 3.04453 17.0007 2.70703 17.0007C2.47148 17.0007 2.23242 16.9834 2.00742 16.9229C2.48555 18.7224 3.84258 20.0418 5.45625 20.0851C4.20117 21.292 2.60508 22.0231 0.882422 22.0231C0.580078 22.0231 0.288281 22.0058 0 21.9625C1.63477 23.2603 3.57187 24 5.66016 24C12.4523 24 16.1648 17.0786 16.1648 11.0786C16.1648 10.8796 16.1578 10.6849 16.1508 10.4903C16.882 9.85004 17.4973 9.04975 18 8.12833Z" fill="black"/>
</g>
<defs>
<clipPath id="clip0_1_452">
<rect width="18" height="18" fill="white" transform="translate(0 6)"/>
</clipPath>
</defs>
</svg>
